<?xml version="1.0" standalone="no"?>
<!DOCTYPE svg PUBLIC "-//W3C//DTD SVG 20010904//EN"
 "http://www.w3.org/TR/2001/REC-SVG-20010904/DTD/svg10.dtd">
<svg version="1.0" xmlns="http://www.w3.org/2000/svg"
 width="560.000000pt" height="560.000000pt" viewBox="0 0 560.000000 560.000000"
 preserveAspectRatio="xMidYMid meet">
<metadata>
Created by potrace 1.14, written by Peter Selinger 2001-2017
</metadata>
<g transform="translate(0.000000,560.000000) scale(0.100000,-0.100000)"
fill="#000000" stroke="none">
<path d="M2575 5210 c-68 -64 -105 -78 -131 -49 -27 30 -63 42 -81 27 -8 -6
-24 -30 -35 -52 -24 -47 -35 -57 -63 -51 -11 2 -23 4 -26 4 -3 1 -15 10 -28
22 -41 38 -101 -4 -96 -68 2 -25 -28 -63 -50 -63 -7 0 -34 9 -59 20 -35 14
-53 17 -71 10 -26 -10 -28 -16 -25 -107 1 -35 -5 -64 -20 -92 -20 -39 -22 -41
-68 -41 -81 0 -114 -40 -71 -86 l20 -22 -61 -28 c-65 -30 -84 -59 -61 -97 15
-23 20 -18 -86 -79 -40 -23 -73 -46 -73 -50 0 -4 -4 -8 -10 -8 -34 0 -252
-179 -392 -322 -105 -106 -290 -335 -306 -377 -3 -9 -8 -18 -12 -21 -8 -7 -80
-130 -80 -137 0 -3 -10 -22 -22 -42 -13 -20 -23 -38 -23 -41 -1 -3 -13 -32
-29 -65 -37 -80 -40 -88 -71 -175 -15 -41 -29 -82 -32 -90 -7 -16 -11 -31 -17
-57 -3 -10 -5 -18 -7 -18 -1 0 -3 -9 -5 -20 -1 -11 -12 -56 -22 -100 -20 -78
-23 -98 -41 -220 -11 -70 -19 -214 -22 -370 -1 -30 10 -187 16 -226 8 -62 34
-212 39 -234 2 -5 6 -23 10 -40 20 -82 77 -267 96 -310 5 -11 27 -63 50 -115
38 -84 56 -121 120 -235 14 -25 42 -69 125 -193 24 -36 155 -195 205 -247 61
-65 150 -147 230 -211 73 -60 264 -194 275 -194 3 0 31 -16 61 -35 30 -19 56
-35 59 -35 3 0 42 -18 87 -39 46 -22 112 -50 148 -64 36 -13 74 -28 85 -32 11
-5 22 -9 25 -10 10 -2 126 -37 150 -45 36 -12 121 -30 153 -32 15 -1 27 -5 27
-9 0 -4 8 -6 17 -5 10 2 33 -1 53 -5 77 -18 174 -24 370 -24 195 0 273 5 375
24 25 5 45 6 45 3 0 -2 6 1 13 7 8 6 16 8 19 5 3 -3 26 0 49 6 24 7 52 14 62
16 106 20 488 160 533 195 6 5 37 23 70 40 32 18 99 58 148 90 49 33 93 59 98
59 4 0 8 4 8 8 0 4 23 25 51 46 65 48 81 62 136 113 24 24 48 43 53 43 5 0 10
4 12 9 2 5 40 49 85 97 82 89 135 151 163 194 8 12 21 28 28 36 6 7 12 17 12
23 0 6 4 11 8 11 5 0 15 12 23 28 8 15 17 29 20 32 10 8 91 149 114 197 11 24
23 43 28 43 4 0 7 6 7 13 0 7 12 38 26 68 76 158 157 423 179 579 9 66 16 110
21 134 3 17 16 254 16 291 -1 72 -14 238 -23 296 -6 41 -12 83 -13 94 -1 11
-6 34 -9 50 -4 17 -9 39 -11 50 -3 11 -9 40 -15 65 -7 25 -14 54 -16 66 -18
79 -86 264 -142 381 -19 40 -34 76 -34 80 0 4 -6 15 -13 23 -6 8 -22 35 -36
60 -13 25 -28 48 -34 52 -6 4 -8 8 -4 8 10 0 -89 146 -167 245 -126 162 -332
361 -471 455 -27 19 -50 37 -52 42 -2 4 -7 8 -12 8 -5 0 -35 17 -67 38 -32 22
-95 59 -141 83 -61 32 -85 51 -90 69 -9 36 -9 42 1 75 33 107 -4 134 -146 107
-44 -9 -47 -8 -42 9 9 28 13 72 8 86 -9 24 -57 34 -98 20 -22 -7 -46 -12 -52
-11 -7 1 -17 2 -22 3 -6 0 -3 24 5 53 12 39 13 57 5 75 -10 22 -16 24 -54 19
-60 -8 -111 -17 -116 -22 -10 -10 -61 29 -85 66 -31 47 -60 61 -98 48 -20 -7
-35 -5 -65 10 -27 14 -53 18 -91 16 -39 -3 -63 1 -93 17 -33 16 -53 19 -98 15
-48 -5 -62 -2 -101 20 -47 27 -118 40 -135 24z"/>
</g>
</svg>
